<svg width="16" height="12" viewBox="0 0 16 12" fill="none" xmlns="http://www.w3.org/2000/svg">
<g id="Group 11700">
<g id="Group">
<g id="Group_2">
<path id="Vector" d="M15.8627 5.50951L11.063 0.176565C10.9607 0.0635069 10.8177 -0.000488281 10.6663 -0.000488281H7.46651C7.25639 -0.000488281 7.06547 0.123236 6.97908 0.315222C6.89375 0.508274 6.92895 0.733324 7.06974 0.889046L11.5483 5.86575L7.06974 10.8414C6.92895 10.9982 6.89269 11.2232 6.97908 11.4152C7.06547 11.6083 7.25639 11.732 7.46651 11.732H10.6663C10.8177 11.732 10.9607 11.6669 11.063 11.556L15.8627 6.22306C16.0451 6.0204 16.0451 5.71109 15.8627 5.50951Z" fill="white"/>
</g>
</g>
<g id="Group_3">
<g id="Group_4">
<path id="Vector_2" d="M8.93008 5.50951L4.13043 0.176565C4.02804 0.0635069 3.88512 -0.000488281 3.73366 -0.000488281H0.533894C0.323776 -0.000488281 0.132857 0.123236 0.046463 0.315222C-0.0388641 0.508274 -0.00366664 0.733324 0.137123 0.889046L4.61573 5.86575L0.137123 10.8414C-0.00366664 10.9982 -0.0399307 11.2232 0.046463 11.4152C0.132857 11.6083 0.323776 11.732 0.533894 11.732H3.73366C3.88512 11.732 4.02804 11.6669 4.13043 11.556L8.93008 6.22306C9.11247 6.0204 9.11247 5.71109 8.93008 5.50951Z" fill="white"/>
</g>
</g>
</g>
</svg>
