<svg width="20" height="18" viewBox="0 0 20 18" fill="none" xmlns="http://www.w3.org/2000/svg">
<g id="Group 11714">
<path id="Vector" d="M14.8855 2.26113C14.9841 2.26113 15.0606 2.2847 15.1042 2.3284C15.2343 2.45835 15.186 2.87992 14.8673 3.30291H16.124C16.38 2.64271 16.3132 1.97538 15.8853 1.54738C15.3345 0.996578 14.387 1.04399 13.5687 1.60808C13.3432 0.737669 12.7426 0.129883 12.0187 0.129883C11.2921 0.129883 10.6897 0.742096 10.4661 1.61765C9.65023 1.06013 8.70842 1.01529 8.1599 1.56381C7.73562 1.98823 7.66665 2.64814 7.91527 3.30291H9.16555C8.8578 2.88549 8.81267 2.47306 8.94091 2.34482C8.98461 2.30112 9.06116 2.27756 9.15955 2.27756C9.40475 2.27756 9.7859 2.42393 10.1328 2.77095C10.3089 2.94689 10.4328 3.13154 10.5128 3.30291H11.7246C11.6907 3.25293 11.6581 3.19552 11.6284 3.13069C11.6064 3.06142 11.581 2.99216 11.5519 2.92304C11.506 2.76567 11.4772 2.58245 11.4772 2.37852C11.4772 1.69076 11.803 1.23449 12.0187 1.23449C12.2342 1.23449 12.5601 1.69076 12.5601 2.37852C12.5601 2.58716 12.5299 2.77438 12.4821 2.93418C12.4582 2.99245 12.4368 3.05114 12.418 3.10984C12.3858 3.18324 12.35 3.24764 12.3123 3.30291H13.5257C13.6116 3.11312 13.7449 2.92204 13.9125 2.75453C14.2595 2.40751 14.6405 2.26113 14.8855 2.26113Z" fill="#6CACDF"/>
<path id="Vector_2" d="M4.71582 5.72691V7.79576C4.71582 8.32129 5.15724 8.74728 5.70176 8.74728H10.4635V4.77539H5.70176C5.15724 4.77539 4.71582 5.20138 4.71582 5.72691Z" fill="#6CACDF"/>
<path id="Vector_3" d="M18.4112 4.77539H13.6196V8.74728H18.4114C18.9559 8.74728 19.3973 8.32129 19.3973 7.79576V5.72691C19.3973 5.20138 18.9559 4.77539 18.4112 4.77539Z" fill="#6CACDF"/>
<path id="Vector_4" d="M11.5684 4.77686H12.5155V8.7526H11.5684V4.77686Z" fill="#6CACDF"/>
<path id="Vector_5" d="M5.39111 9.8291V11.1408H7.85696C8.162 11.1408 8.4092 11.388 8.4092 11.693C8.4092 11.9981 8.162 12.2453 7.85696 12.2453H5.39111V13.8653H7.99306C8.29809 13.8653 8.54543 14.1126 8.54543 14.4175C8.54543 14.7225 8.29809 14.9699 7.99306 14.9699H5.39111V15.1866C5.39111 16.1874 6.114 17.0014 7.00255 17.0014H10.4632V9.85195H5.70143C5.59604 9.85195 5.49236 9.8441 5.39111 9.8291Z" fill="#6CACDF"/>
<path id="Vector_6" d="M13.6196 9.85195V17.0014H17.1103C17.9988 17.0014 18.7217 16.1873 18.7217 15.1866V9.8291C18.6204 9.8441 18.5168 9.85195 18.4114 9.85195H13.6196Z" fill="#6CACDF"/>
<path id="Vector_7" d="M11.5684 9.85938H12.5155V17.0333H11.5684V9.85938Z" fill="#6CACDF"/>
<path id="Vector_8" d="M3.47753 13.8652C3.17249 13.8652 2.92529 14.1124 2.92529 14.4175C2.92529 14.7225 3.17249 14.9697 3.47753 14.9697H5.39128V13.8652H3.47753Z" fill="#6CACDF"/>
<path id="Vector_9" d="M1.23143 11.1406C0.926398 11.1406 0.679199 11.3878 0.679199 11.6929C0.679199 11.9979 0.926398 12.2451 1.23143 12.2451H5.39112V11.1406H1.23143Z" fill="#6CACDF"/>
</g>
</svg>
