<svg width="21" height="20" viewBox="0 0 21 20" fill="none" xmlns="http://www.w3.org/2000/svg">
<g id="Group">
<g id="_x31_5_38_">
<g id="Group_2">
<path id="Vector" d="M4.9753 4.66194H5.26659C5.70926 4.66194 6.0681 4.30297 6.0681 3.86042V1.64858V0.821248C6.0681 0.378696 5.70926 0.0197754 5.26659 0.0197754H4.9753C4.53266 0.0197754 4.17383 0.378696 4.17383 0.821248V1.64862V3.86042C4.17383 4.30297 4.53266 4.66194 4.9753 4.66194Z" fill="#6CACDF"/>
<path id="Vector_2" d="M15.2557 4.64216H15.5469C15.9896 4.64216 16.3484 4.28324 16.3484 3.84065V1.43875V0.801431C16.3484 0.35892 15.9896 0 15.5469 0H15.2557C14.8129 0 14.4541 0.35892 14.4541 0.801431V1.43875V3.8406C14.4542 4.28324 14.813 4.64216 15.2557 4.64216Z" fill="#6CACDF"/>
<path id="Vector_3" d="M19.0572 1.64868H17.0001V4.05054C17.0001 4.85176 16.3483 5.29368 15.5472 5.29368H15.2559C14.4547 5.29368 13.8029 4.64184 13.8029 3.84062V1.64868H6.71965V3.86048C6.71965 4.6617 6.06785 5.31354 5.26663 5.31354H4.97534C4.17417 5.31354 3.52237 4.6617 3.52237 3.86048V1.64868H1.30301C0.584542 1.64868 0 2.23322 0 2.95174V18.697C0 19.4155 0.584542 20 1.30301 20H19.0572C19.7756 20 20.3601 19.4155 20.3601 18.697V2.95174C20.3602 2.23327 19.7756 1.64868 19.0572 1.64868ZM19.0572 18.697H1.30305L1.30301 6.80657H19.0574L19.0581 18.6969C19.058 18.6969 19.0578 18.697 19.0572 18.697Z" fill="#6CACDF"/>
<path id="Vector_4" d="M10.8525 10.7949H13.1921C13.2849 10.7949 13.3601 10.7197 13.3601 10.627V8.60104C13.3601 8.5083 13.2849 8.43311 13.1921 8.43311H10.8525C10.7598 8.43311 10.6846 8.5083 10.6846 8.60104V10.627C10.6846 10.7197 10.7598 10.7949 10.8525 10.7949Z" fill="#6CACDF"/>
<path id="Vector_5" d="M14.6709 10.7949H17.0105C17.1032 10.7949 17.1784 10.7197 17.1784 10.627V8.60104C17.1784 8.5083 17.1032 8.43311 17.0105 8.43311H14.6709C14.5781 8.43311 14.5029 8.5083 14.5029 8.60104V10.627C14.5029 10.7197 14.5781 10.7949 14.6709 10.7949Z" fill="#6CACDF"/>
<path id="Vector_6" d="M3.21628 14.1116H5.55587C5.64861 14.1116 5.72381 14.0364 5.72381 13.9437V11.9177C5.72381 11.8249 5.64861 11.7498 5.55587 11.7498H3.21628C3.12353 11.7498 3.04834 11.8249 3.04834 11.9177V13.9437C3.04834 14.0364 3.12353 14.1116 3.21628 14.1116Z" fill="#6CACDF"/>
<path id="Vector_7" d="M7.03463 14.1116H9.37423C9.46697 14.1116 9.54217 14.0364 9.54217 13.9437V11.9177C9.54217 11.8249 9.46697 11.7498 9.37423 11.7498H7.03463C6.94189 11.7498 6.8667 11.8249 6.8667 11.9177V13.9437C6.8667 14.0364 6.94189 14.1116 7.03463 14.1116Z" fill="#6CACDF"/>
<path id="Vector_8" d="M10.8525 14.1116H13.1921C13.2848 14.1116 13.36 14.0364 13.36 13.9437V11.9177C13.36 11.8249 13.2848 11.7498 13.1921 11.7498H10.8525C10.7598 11.7498 10.6846 11.8249 10.6846 11.9177V13.9437C10.6846 14.0364 10.7598 14.1116 10.8525 14.1116Z" fill="#6CACDF"/>
<path id="Vector_9" d="M14.6709 14.1116H17.0105C17.1032 14.1116 17.1784 14.0364 17.1784 13.9437V11.9177C17.1784 11.8249 17.1032 11.7498 17.0105 11.7498H14.6709C14.5781 11.7498 14.5029 11.8249 14.5029 11.9177V13.9437C14.5029 14.0364 14.5781 14.1116 14.6709 14.1116Z" fill="#6CACDF"/>
<path id="Vector_10" d="M5.55583 15.0667H3.21628C3.12353 15.0667 3.04834 15.1418 3.04834 15.2346V17.2606C3.04834 17.3533 3.12353 17.4285 3.21628 17.4285H5.55587C5.64861 17.4285 5.72381 17.3533 5.72381 17.2606V15.2346C5.72376 15.1418 5.64857 15.0667 5.55583 15.0667Z" fill="#6CACDF"/>
<path id="Vector_11" d="M9.37423 15.0667H7.03463C6.94189 15.0667 6.8667 15.1418 6.8667 15.2346V17.2606C6.8667 17.3533 6.94189 17.4285 7.03463 17.4285H9.37423C9.46697 17.4285 9.54217 17.3533 9.54217 17.2606V15.2346C9.54217 15.1418 9.46697 15.0667 9.37423 15.0667Z" fill="#6CACDF"/>
<path id="Vector_12" d="M13.1926 15.0667H10.853C10.7603 15.0667 10.6851 15.1418 10.6851 15.2346V17.2606C10.6851 17.3533 10.7603 17.4285 10.853 17.4285H13.1926C13.2854 17.4285 13.3606 17.3533 13.3606 17.2606V15.2346C13.3606 15.1418 13.2854 15.0667 13.1926 15.0667Z" fill="#6CACDF"/>
<path id="Vector_13" d="M17.0105 15.0667H14.6709C14.5781 15.0667 14.5029 15.1418 14.5029 15.2346V17.2606C14.5029 17.3533 14.5781 17.4285 14.6709 17.4285H17.0105C17.1032 17.4285 17.1784 17.3533 17.1784 17.2606V15.2346C17.1784 15.1418 17.1032 15.0667 17.0105 15.0667Z" fill="#6CACDF"/>
</g>
</g>
</g>
</svg>
