<svg width="20" height="20" viewBox="0 0 20 20" fill="none" xmlns="http://www.w3.org/2000/svg">
<g id="Group 11894">
<path id="Vector" d="M19.4141 0H0.585938C0.262344 0 0 0.280874 0 0.627323V15.8504C0 16.1968 0.262344 16.4777 0.585938 16.4777H5.98801L5.45168 18.0669H4.37504C4.05145 18.0669 3.7891 18.3478 3.7891 18.6942C3.7891 19.0407 4.05145 19.3216 4.37504 19.3216H15.625C15.9486 19.3216 16.2109 19.0407 16.2109 18.6942C16.2109 18.3478 15.9486 18.0669 15.625 18.0669H14.5482L14.0114 16.4777H19.4141C19.7377 16.4777 20 16.1968 20 15.8504V0.627323C20 0.280874 19.7377 0 19.4141 0ZM18.8281 1.25465V12.7138H17.6562V8.48978C17.6562 8.14333 17.3939 7.86245 17.0703 7.86245H14.7266C14.403 7.86245 14.1406 8.14333 14.1406 8.48978V12.7138H12.9688V5.98048C12.9688 5.63403 12.7064 5.35316 12.3828 5.35316H10.039C9.71543 5.35316 9.45309 5.63403 9.45309 5.98048V12.7138H8.28125V10.6227C8.28125 10.2762 8.01891 9.99535 7.69531 9.99535H5.35156C5.02797 9.99535 4.76562 10.2762 4.76562 10.6227V12.7138H1.17188V1.25465H18.8281ZM18.8281 15.223H1.17188V13.9684H18.8281V15.223ZM7.10938 12.7138H5.9375V11.25H7.10938V12.7138ZM11.7969 12.7138H10.625V6.60781H11.7969V12.7138ZM16.4844 12.7138H15.3125V9.1171H16.4844V12.7138ZM13.3021 18.0669H6.6977L7.23402 16.4777H12.7652L13.3021 18.0669Z" fill="#E7E7E7"/>
<path id="Vector_2" d="M2.92979 3.76392H13.3985C13.7221 3.76392 13.9844 3.48305 13.9844 3.1366C13.9844 2.79015 13.7221 2.50928 13.3985 2.50928H2.92979C2.15643 2.53851 2.1508 3.73222 2.92979 3.76392Z" fill="#E7E7E7"/>
<path id="Vector_3" d="M2.92983 6.2732H7.69541C8.01901 6.2732 8.28135 5.99233 8.28135 5.64588C8.28135 5.29943 8.01901 5.01855 7.69541 5.01855H2.92983C2.15475 5.04867 2.15245 6.24213 2.92983 6.2732Z" fill="#E7E7E7"/>
<path id="Vector_4" d="M2.92983 8.78248H7.69163C8.01522 8.78248 8.27756 8.50161 8.27756 8.15516C8.27756 7.80871 8.01522 7.52783 7.69163 7.52783H2.92983C2.15475 7.55794 2.15245 8.75141 2.92983 8.78248Z" fill="#E7E7E7"/>
<path id="Vector_5" d="M15.6642 3.84742H17.0705C17.3941 3.84742 17.6564 3.56655 17.6564 3.2201C17.6564 2.87365 17.3941 2.59277 17.0705 2.59277H15.6642C14.8882 2.62334 14.8877 3.81664 15.6642 3.84742Z" fill="#E7E7E7"/>
</g>
</svg>
