<svg width="20" height="20" viewBox="0 0 20 20" fill="none" xmlns="http://www.w3.org/2000/svg">
<g id="mingcute:dots-fill" clip-path="url(#clip0_195_2255)">
<g id="Group">
<path id="Vector" d="M3.3335 12.5001C3.3335 12.0581 3.50909 11.6341 3.82165 11.3216C4.13421 11.009 4.55814 10.8334 5.00016 10.8334C5.44219 10.8334 5.86611 11.009 6.17867 11.3216C6.49123 11.6341 6.66683 12.0581 6.66683 12.5001C6.66683 12.9421 6.49123 13.366 6.17867 13.6786C5.86611 13.9912 5.44219 14.1667 5.00016 14.1667C4.55814 14.1667 4.13421 13.9912 3.82165 13.6786C3.50909 13.366 3.3335 12.9421 3.3335 12.5001ZM10.0002 10.8334C9.55814 10.8334 9.13421 11.009 8.82165 11.3216C8.50909 11.6341 8.3335 12.0581 8.3335 12.5001C8.3335 12.9421 8.50909 13.366 8.82165 13.6786C9.13421 13.9912 9.55814 14.1667 10.0002 14.1667C10.4422 14.1667 10.8661 13.9912 11.1787 13.6786C11.4912 13.366 11.6668 12.9421 11.6668 12.5001C11.6668 12.0581 11.4912 11.6341 11.1787 11.3216C10.8661 11.009 10.4422 10.8334 10.0002 10.8334ZM15.0002 10.8334C14.5581 10.8334 14.1342 11.009 13.8217 11.3216C13.5091 11.6341 13.3335 12.0581 13.3335 12.5001C13.3335 12.9421 13.5091 13.366 13.8217 13.6786C14.1342 13.9912 14.5581 14.1667 15.0002 14.1667C15.4422 14.1667 15.8661 13.9912 16.1787 13.6786C16.4912 13.366 16.6668 12.9421 16.6668 12.5001C16.6668 12.0581 16.4912 11.6341 16.1787 11.3216C15.8661 11.009 15.4422 10.8334 15.0002 10.8334ZM10.0002 5.83342C9.55814 5.83342 9.13421 6.00901 8.82165 6.32157C8.50909 6.63413 8.3335 7.05805 8.3335 7.50008C8.3335 7.94211 8.50909 8.36603 8.82165 8.67859C9.13421 8.99115 9.55814 9.16675 10.0002 9.16675C10.4422 9.16675 10.8661 8.99115 11.1787 8.67859C11.4912 8.36603 11.6668 7.94211 11.6668 7.50008C11.6668 7.05805 11.4912 6.63413 11.1787 6.32157C10.8661 6.00901 10.4422 5.83342 10.0002 5.83342ZM13.3335 7.50008C13.3335 7.05805 13.5091 6.63413 13.8217 6.32157C14.1342 6.00901 14.5581 5.83342 15.0002 5.83342C15.4422 5.83342 15.8661 6.00901 16.1787 6.32157C16.4912 6.63413 16.6668 7.05805 16.6668 7.50008C16.6668 7.94211 16.4912 8.36603 16.1787 8.67859C15.8661 8.99115 15.4422 9.16675 15.0002 9.16675C14.5581 9.16675 14.1342 8.99115 13.8217 8.67859C13.5091 8.36603 13.3335 7.94211 13.3335 7.50008ZM5.00016 5.83342C4.55814 5.83342 4.13421 6.00901 3.82165 6.32157C3.50909 6.63413 3.3335 7.05805 3.3335 7.50008C3.3335 7.94211 3.50909 8.36603 3.82165 8.67859C4.13421 8.99115 4.55814 9.16675 5.00016 9.16675C5.44219 9.16675 5.86611 8.99115 6.17867 8.67859C6.49123 8.36603 6.66683 7.94211 6.66683 7.50008C6.66683 7.05805 6.49123 6.63413 6.17867 6.32157C5.86611 6.00901 5.44219 5.83342 5.00016 5.83342Z" fill="#B5B5B5"/>
</g>
</g>
<defs>
<clipPath id="clip0_195_2255">
<rect width="20" height="20" fill="white" transform="matrix(0 -1 1 0 0 20)"/>
</clipPath>
</defs>
</svg>
