<svg width="22" height="22" viewBox="0 0 22 22" fill="none" xmlns="http://www.w3.org/2000/svg">
<g id="Group">
<path id="Vector" d="M14.8672 2.57788C12.3795 2.57788 10.3555 4.60182 10.3555 7.08957C10.3555 9.57732 12.3795 11.6013 14.8672 11.6013C17.355 11.6013 19.379 9.57732 19.379 7.08957C19.379 4.60182 17.355 2.57788 14.8672 2.57788ZM15.7051 8.37646C15.7051 8.73241 15.4166 9.021 15.0606 9.021C14.7046 9.021 14.4161 8.73241 14.4161 8.37646V6.66215C14.4118 6.66074 13.9547 6.67161 13.8046 6.22129C13.692 5.88359 13.8746 5.51857 14.2123 5.40599L14.8568 5.19114C15.2741 5.05218 15.7052 5.36324 15.7052 5.8026V8.37646H15.7051Z" fill="#EF2A4A"/>
<path id="Vector_2" d="M14.8696 1.97845C15.2256 1.97845 15.5142 1.68987 15.5142 1.33391V0.644295C15.5142 0.288337 15.2256 -0.000244141 14.8696 -0.000244141C14.5137 -0.000244141 14.2251 0.288337 14.2251 0.644295V1.33391C14.2251 1.68987 14.5137 1.97845 14.8696 1.97845Z" fill="white"/>
<path id="Vector_3" d="M10.2819 3.49758C10.5336 3.74925 10.9417 3.74929 11.1934 3.49758C11.4451 3.24586 11.4451 2.83778 11.1934 2.58611L10.7058 2.09845C10.4541 1.84674 10.046 1.84674 9.79425 2.09845C9.54254 2.35017 9.54254 2.75825 9.79425 3.00992L10.2819 3.49758Z" fill="white"/>
<path id="Vector_4" d="M19.4484 10.8533C19.1968 10.6016 18.7886 10.6016 18.5369 10.8533C18.2852 11.1051 18.2852 11.5131 18.5369 11.7648L19.0246 12.2525C19.2763 12.5041 19.6844 12.5042 19.9361 12.2525C20.1878 12.0007 20.1878 11.5927 19.9361 11.341L19.4484 10.8533Z" fill="white"/>
<path id="Vector_5" d="M21.3557 6.53516H20.666C20.3101 6.53516 20.0215 6.82374 20.0215 7.1797C20.0215 7.53565 20.3101 7.82423 20.666 7.82423H21.3557C21.7116 7.82423 22.0002 7.53565 22.0002 7.1797C22.0002 6.82374 21.7116 6.53516 21.3557 6.53516Z" fill="white"/>
<path id="Vector_6" d="M19.4548 3.50368L19.9424 3.01602C20.1942 2.76431 20.1942 2.35623 19.9424 2.10456C19.6908 1.85284 19.2826 1.85284 19.0309 2.10456L18.5433 2.59222C18.2916 2.84393 18.2916 3.25201 18.5433 3.50368C18.7949 3.75535 19.2031 3.75539 19.4548 3.50368Z" fill="white"/>
<path id="Vector_7" d="M11.2791 11.644H3.04867C2.69271 11.644 2.40413 11.3554 2.40413 10.9995C2.40413 10.6435 2.69271 10.3549 3.04867 10.3549H10.0756C9.31024 9.23546 8.96283 7.89173 9.0935 6.53076H3.2227C1.4457 6.53076 0 7.97642 0 9.75337V14.9955C0 16.5661 1.12953 17.878 2.61898 18.1614V21.3548C2.61898 21.9266 3.30838 22.2124 3.71414 21.8156L7.39351 18.2181H12.2871C14.0641 18.2181 15.5098 16.7724 15.5098 14.9955V12.8543C13.984 13.0232 12.4754 12.5884 11.2791 11.644ZM11.6425 14.2221H3.04867C2.69271 14.2221 2.40413 13.9335 2.40413 13.5776C2.40413 13.2216 2.69271 12.933 3.04867 12.933H11.6425C11.9985 12.933 12.2871 13.2216 12.2871 13.5776C12.2871 13.9336 11.9985 14.2221 11.6425 14.2221Z" fill="white"/>
</g>
</svg>
