<svg width="20" height="20" viewBox="0 0 20 20" fill="none" xmlns="http://www.w3.org/2000/svg">
<path d="M17.8207 1.7251H17.1596V0.652946C17.1596 0.300656 16.9024 0.0151367 16.5855 0.0151367C16.2685 0.0151367 16.0115 0.300656 16.0115 0.652946V1.7251H13.7834V0.669057C13.7834 0.316767 13.5264 0.031248 13.2094 0.031248C12.8923 0.031248 12.6353 0.316767 12.6353 0.669057V1.7251H10.4074V0.669057C10.4074 0.316767 10.1503 0.031248 9.83337 0.031248C9.51631 0.031248 9.25934 0.316767 9.25934 0.669057V1.7251H7.09672V0.652946C7.09672 0.300656 6.83975 0.0151367 6.52269 0.0151367C6.20563 0.0151367 5.94866 0.300656 5.94866 0.652946V1.7251H3.78604V0.652946C3.78604 0.300656 3.52908 0.0151367 3.21201 0.0151367C2.8951 0.0151367 2.63799 0.300656 2.63799 0.652946V1.7251H1.83136C0.83772 1.7251 0.0292969 2.62334 0.0292969 3.72739V17.9975C0.0292969 19.1016 0.83772 19.9998 1.83136 19.9998H17.8207C18.8144 19.9998 19.6228 19.1016 19.6228 17.9975V3.72739C19.6228 2.62334 18.8144 1.7251 17.8207 1.7251ZM1.83136 3.00071H2.63799V3.86026C2.63799 4.21255 2.8951 4.49807 3.21201 4.49807C3.52908 4.49807 3.78604 4.21255 3.78604 3.86026V3.00071H5.94866V3.86026C5.94866 4.21255 6.20563 4.49807 6.52269 4.49807C6.83975 4.49807 7.09672 4.21255 7.09672 3.86026V3.00071H9.25934V3.87637C9.25934 4.22866 9.51631 4.51418 9.83337 4.51418C10.1504 4.51418 10.4074 4.22866 10.4074 3.87637V3.00071H12.6353V3.87637C12.6353 4.22866 12.8925 4.51418 13.2094 4.51418C13.5264 4.51418 13.7834 4.22866 13.7834 3.87637V3.00071H16.0115V3.86026C16.0115 4.21255 16.2685 4.49807 16.5855 4.49807C16.9024 4.49807 17.1596 4.21255 17.1596 3.86026V3.00071H17.8207C18.1814 3.00071 18.4747 3.3266 18.4747 3.72739V5.53717H1.17735V3.72739C1.17735 3.3266 1.4708 3.00071 1.83136 3.00071ZM17.8207 18.7242H1.83136C1.4708 18.7242 1.17735 18.3982 1.17735 17.9975V6.81279H18.4747V17.9975C18.4747 18.3982 18.1813 18.7242 17.8207 18.7242Z" fill="#6CACDF"/>
<path d="M17.7914 1.70996H17.1303V0.637809C17.1303 0.285519 16.8731 0 16.5562 0C16.2392 0 15.9822 0.285519 15.9822 0.637809V1.70996H13.7541V0.653921C13.7541 0.301631 13.4971 0.0161113 13.1801 0.0161113C12.863 0.0161113 12.606 0.301631 12.606 0.653921V1.70996H10.3781V0.653921C10.3781 0.301631 10.121 0.0161113 9.80407 0.0161113C9.48701 0.0161113 9.23005 0.301631 9.23005 0.653921V1.70996H7.06742V0.637809C7.06742 0.285519 6.81046 0 6.4934 0C6.17633 0 5.91937 0.285519 5.91937 0.637809V1.70996H3.75675V0.637809C3.75675 0.285519 3.49978 0 3.18272 0C2.86581 0 2.60869 0.285519 2.60869 0.637809V1.70996H1.80206C0.808423 1.70996 0 2.60821 0 3.71225V17.9824C0 19.0864 0.808423 19.9847 1.80206 19.9847H17.7914C18.7851 19.9847 19.5935 19.0864 19.5935 17.9824V3.71225C19.5935 2.60821 18.7851 1.70996 17.7914 1.70996ZM1.80206 2.98558H2.60869V3.84513C2.60869 4.19742 2.86581 4.48293 3.18272 4.48293C3.49978 4.48293 3.75675 4.19742 3.75675 3.84513V2.98558H5.91937V3.84513C5.91937 4.19742 6.17633 4.48293 6.4934 4.48293C6.81046 4.48293 7.06742 4.19742 7.06742 3.84513V2.98558H9.23005V3.86124C9.23005 4.21353 9.48701 4.49905 9.80407 4.49905C10.1211 4.49905 10.3781 4.21353 10.3781 3.86124V2.98558H12.606V3.86124C12.606 4.21353 12.8632 4.49905 13.1801 4.49905C13.4971 4.49905 13.7541 4.21353 13.7541 3.86124V2.98558H15.9822V3.84513C15.9822 4.19742 16.2392 4.48293 16.5562 4.48293C16.8731 4.48293 17.1303 4.19742 17.1303 3.84513V2.98558H17.7914C18.1521 2.98558 18.4454 3.31146 18.4454 3.71225V5.52203H1.14806V3.71225C1.14806 3.31146 1.4415 2.98558 1.80206 2.98558ZM17.7914 18.7091H1.80206C1.4415 18.7091 1.14806 18.383 1.14806 17.9824V6.79765H18.4454V17.9824C18.4454 18.383 18.152 18.7091 17.7914 18.7091Z" fill="#6CACDF"/>
<path d="M10.8852 8.09155H8.78121C8.33723 8.09155 7.97607 8.49301 7.97607 8.98631V11.3241C7.97607 11.8174 8.33723 12.2189 8.78121 12.2189H10.8852C11.3292 12.2189 11.6905 11.8174 11.6905 11.3241V8.98631C11.6905 8.49301 11.3292 8.09155 10.8852 8.09155ZM10.5425 10.9431H9.12398V9.36717H10.5425V10.9431Z" fill="#6CACDF"/>
<path d="M10.8852 13.4917H8.78121C8.33723 13.4917 7.97607 13.8932 7.97607 14.3865V16.7243C7.97607 17.2176 8.33723 17.619 8.78121 17.619H10.8852C11.3292 17.619 11.6905 17.2176 11.6905 16.7243V14.3865C11.6905 13.8932 11.3292 13.4917 10.8852 13.4917ZM10.5425 16.3432H9.12398V14.7673H10.5425V16.3432Z" fill="#6CACDF"/>
<path d="M5.54749 8.09155H3.44347C2.99949 8.09155 2.63818 8.49301 2.63818 8.98631V11.3241C2.63818 11.8174 2.99949 12.2189 3.44347 12.2189H5.54749C5.99147 12.2189 6.35262 11.8174 6.35262 11.3241V8.98631C6.35262 8.49301 5.99147 8.09155 5.54749 8.09155ZM5.20457 10.9431H3.78624V9.36717H5.20457V10.9431Z" fill="#6CACDF"/>
<path d="M5.54749 13.4917H3.44347C2.99949 13.4917 2.63818 13.8932 2.63818 14.3865V16.7243C2.63818 17.2176 2.99949 17.619 3.44347 17.619H5.54749C5.99147 17.619 6.35262 17.2176 6.35262 16.7243V14.3865C6.35262 13.8932 5.99147 13.4917 5.54749 13.4917ZM5.20457 16.3432H3.78624V14.7673H5.20457V16.3432Z" fill="#6CACDF"/>
<path d="M16.3546 8.09155H14.2506C13.8065 8.09155 13.4453 8.49301 13.4453 8.98631V11.3241C13.4453 11.8174 13.8065 12.2189 14.2506 12.2189H16.3546C16.7986 12.2189 17.1599 11.8174 17.1599 11.3241V8.98631C17.1599 8.49301 16.7986 8.09155 16.3546 8.09155ZM16.0118 10.9431H14.5934V9.36717H16.0118V10.9431Z" fill="#6CACDF"/>
<path d="M16.0134 14.3553L14.93 15.5592L14.5912 15.1826C14.367 14.9337 14.0036 14.9337 13.7794 15.1828C13.5553 15.4318 13.5553 15.8356 13.7795 16.0847L14.2824 16.6436C14.4555 16.8358 14.6854 16.9416 14.93 16.9416C15.1747 16.9416 15.4047 16.8358 15.5775 16.6436L16.8253 15.2574C17.0495 15.0082 17.0495 14.6045 16.8253 14.3553C16.6011 14.1062 16.2377 14.1062 16.0134 14.3553Z" fill="#6CACDF"/>
</svg>
