<svg width="20" height="20" viewBox="0 0 20 20" fill="none" xmlns="http://www.w3.org/2000/svg">
<g id="Group">
<path id="Vector" d="M1.26112 14.498H1.31562V14.0556C1.31562 13.8088 1.47808 13.5947 1.71462 13.4888C1.74967 12.7158 2.40427 12.0793 3.25777 11.9448V11.8595C3.25777 11.698 3.40826 11.5672 3.59389 11.5672C3.77953 11.5672 3.93002 11.698 3.93002 11.8595V11.9448C4.19498 11.9865 4.44085 12.0764 4.65494 12.204C5.01832 11.3315 5.74906 10.603 6.70115 10.1732C6.70649 10.1706 6.712 10.1681 6.71751 10.1658C6.80235 10.1279 6.88876 10.0921 6.977 10.059L7.02962 10.0393C7.03356 9.94176 7.07018 9.84441 7.14148 9.7598L8.0173 8.72059C7.49303 8.28469 7.13516 7.6993 7.03504 7.04369H6.85801C6.21776 7.04369 5.69689 6.59076 5.69689 6.03406C5.69689 5.5966 6.01854 5.22337 6.46694 5.08347L6.27561 4.06199C6.13319 3.30146 6.27615 2.54156 6.68905 1.86431C6.77604 1.72168 6.97951 1.66735 7.1435 1.743C7.30753 1.81856 7.36996 1.99549 7.28301 2.13813C6.9394 2.70173 6.82046 3.33447 6.93913 3.96799L7.09864 4.81947C7.12405 4.78124 7.15381 4.745 7.1889 4.71191C7.47335 4.44402 7.66405 4.11288 7.74033 3.75431C7.77479 3.59238 7.90041 3.45937 8.07637 3.39854C8.25232 3.3377 8.44866 3.35933 8.60153 3.45645L8.88012 3.63334C9.71349 4.16265 10.8334 4.16265 11.6668 3.63334L11.9453 3.45645C12.0982 3.35937 12.2945 3.33767 12.4705 3.39854C12.6465 3.45937 12.7721 3.59238 12.8065 3.75431C12.8828 4.11288 13.0735 4.44402 13.358 4.71195C13.3757 4.72859 13.3917 4.74617 13.407 4.76421L13.5561 3.96795C13.7144 3.12266 13.4393 2.26365 12.8013 1.61116C12.1633 0.958813 11.2325 0.584571 10.2476 0.584571C9.45391 0.584571 8.71344 0.817035 8.10621 1.25675C7.96361 1.36006 7.75162 1.34334 7.63281 1.21922C7.514 1.09517 7.53336 0.910878 7.67597 0.807604C8.3951 0.28679 9.30839 0 10.2477 0C11.4301 0 12.5475 0.449223 13.3135 1.23255C14.0795 2.01587 14.4097 3.04713 14.2197 4.06203L14.0287 5.08163C14.4804 5.21998 14.8052 5.59458 14.8052 6.03413C14.8052 6.59084 14.2843 7.04377 13.6441 7.04377H13.5119C13.4098 7.71201 13.0401 8.30749 12.4992 8.74588L13.3538 9.75988C13.4251 9.84448 13.4618 9.94184 13.4657 10.0394L13.5183 10.0591C14.8703 10.5656 15.8154 11.633 16.0422 12.8844H17.2123C17.5582 12.8844 17.8626 13.0765 17.9698 13.3625L18.3953 14.4981H19.2342C19.6564 14.4981 20 14.7968 20 15.164V15.8112C20 16.0735 19.8243 16.3002 19.5703 16.4087V17.0875C19.5703 17.249 19.4198 17.3798 19.2342 17.3798C19.0485 17.3798 18.898 17.249 18.898 17.0875V16.4771H4.5044C4.31877 16.4771 4.16827 16.3463 4.16827 16.1848C4.16827 16.0234 4.31877 15.8925 4.5044 15.8925H19.2342C19.2857 15.8925 19.3277 15.856 19.3277 15.8112V15.164C19.3277 15.1191 19.2857 15.0826 19.2342 15.0826H1.26112C1.20954 15.0826 1.16754 15.1191 1.16754 15.164V15.8112C1.16754 15.856 1.20954 15.8925 1.26112 15.8925H3.07195C3.25759 15.8925 3.40808 16.0234 3.40808 16.1848C3.40808 16.3463 3.25759 16.4771 3.07195 16.4771H1.59725V19.7077C1.59725 19.8692 1.44675 20 1.26112 20C1.07549 20 0.924992 19.8692 0.924992 19.7077V16.4086C0.670967 16.3001 0.495285 16.0734 0.495285 15.8111V15.1639C0.495285 14.7967 0.838852 14.498 1.26112 14.498ZM5.19996 14.498V14.0556C5.19996 14.0264 5.17262 14.0026 5.13901 14.0026H2.04887C2.01526 14.0026 1.98792 14.0264 1.98792 14.0556V14.498H5.19996ZM3.59389 12.5027C2.98022 12.5027 2.4719 12.9023 2.39504 13.418H4.79275C4.71594 12.9023 4.20758 12.5027 3.59389 12.5027ZM5.18665 12.685C5.3566 12.9198 5.45985 13.1943 5.47321 13.4888C5.70975 13.5947 5.87222 13.8088 5.87222 14.0556V14.498H6.53076V10.9526C5.87334 11.3756 5.39384 11.9863 5.18665 12.685ZM13.1583 13.3624C13.1884 13.2821 13.2345 13.2095 13.2923 13.1462V10.6116C13.2789 10.6064 13.1336 10.5515 13.1336 10.5515L10.5837 12.7521V14.498H12.7328L13.1583 13.3624ZM10.2477 10.1007L10.8128 9.47009C10.6372 9.49557 10.4572 9.50949 10.2735 9.50949C10.0687 9.50949 9.8686 9.49222 9.67414 9.46077L10.2477 10.1007ZM10.2477 10.9801L9.51576 11.5869L10.2477 12.2185L10.9796 11.5869L10.2477 10.9801ZM9.91154 12.7521L7.36167 10.5515C7.36167 10.5515 7.21642 10.6064 7.20302 10.6116V14.498H9.91154V12.7521ZM9.03837 11.1749L9.7955 10.5473L8.5153 9.11872L7.73231 10.0478L9.03837 11.1749ZM6.85806 6.45916H7.00564V5.609H6.85806C6.58848 5.609 6.36919 5.79972 6.36919 6.0341C6.36919 6.26847 6.58848 6.45916 6.85806 6.45916ZM14.1329 6.0341C14.1329 5.79968 13.9136 5.609 13.644 5.609H13.5413V6.45916H13.644C13.9136 6.45916 14.1329 6.26851 14.1329 6.0341ZM12.869 6.66793V5.11959C12.869 5.1155 12.8672 5.11157 12.8641 5.10856C12.5377 4.80116 12.3061 4.42992 12.1875 4.02664L12.0633 4.10548C10.9927 4.78541 9.55421 4.78541 8.48362 4.10548L8.35943 4.02664C8.24089 4.42996 8.00927 4.80116 7.68292 5.10853C7.67969 5.11157 7.6779 5.1155 7.6779 5.11959V6.66793C7.6779 7.91244 8.84225 8.92492 10.2735 8.92492C11.7047 8.92492 12.869 7.9124 12.869 6.66793ZM11.9799 9.11872L10.6998 10.5473L11.4569 11.1749L12.763 10.0478L11.9799 9.11872ZM13.9645 10.9515V12.8843H15.3591C15.1905 12.1046 14.6896 11.4164 13.9645 10.9515ZM17.3305 13.5435C17.3138 13.4988 17.2662 13.4689 17.2122 13.4689H13.9157C13.8617 13.4689 13.8142 13.4989 13.7974 13.5435L13.4398 14.4979H17.6881L17.3305 13.5435Z" fill="#6CACDF"/>
<path id="Vector_2" d="M19.2342 18.0408C19.4198 18.0408 19.5703 18.1716 19.5703 18.3331V19.7077C19.5703 19.8692 19.4198 20 19.2342 20C19.0486 20 18.8981 19.8692 18.8981 19.7077V18.3331C18.8981 18.1716 19.0486 18.0408 19.2342 18.0408Z" fill="#6CACDF"/>
</g>
</svg>
