<svg width="18" height="18" viewBox="0 0 18 18" fill="none" xmlns="http://www.w3.org/2000/svg">
<g id="Group">
<g id="Group_2">
<path id="Vector" d="M10.2847 11.4443C10.1118 11.6171 9.89802 11.7492 9.66638 11.8265L7.42901 12.5722C7.26754 12.6261 7.09914 12.6534 6.92877 12.6534C6.50616 12.6534 6.10886 12.4889 5.81007 12.19C5.38359 11.7635 5.2372 11.1432 5.42793 10.5711L6.17373 8.3338C6.25089 8.10209 6.38308 7.8882 6.55587 7.7154L11.3883 2.88306H1.93359C0.867406 2.88306 0 3.75046 0 4.81664V16.0666C0 17.1328 0.867406 18.0002 1.93359 18.0002H13.1835C14.2497 18.0002 15.1171 17.1328 15.1171 16.0666V6.61192L10.2847 11.4443Z" fill="white"/>
</g>
<path id="Vector_2" d="M7.30162 8.46095C7.24372 8.51885 7.20013 8.58941 7.17425 8.66707L6.42845 10.9044C6.36527 11.0939 6.4146 11.3028 6.55582 11.444C6.69708 11.5853 6.90597 11.6346 7.09547 11.5714L9.3328 10.8256C9.4105 10.7997 9.48102 10.7561 9.53892 10.6982L16.1266 4.11059L13.8893 1.87329L7.30162 8.46095Z" fill="white"/>
<path id="Vector_3" d="M16.7483 0.257666C16.405 -0.0855631 15.8486 -0.0855631 15.5053 0.257666L14.6353 1.12774L16.8726 3.36508L17.7427 2.495C18.0859 2.15177 18.0859 1.59528 17.7427 1.25206L16.7483 0.257666Z" fill="white"/>
</g>
</svg>
