<svg width="20" height="20" viewBox="0 0 20 20" fill="none" xmlns="http://www.w3.org/2000/svg">
<path d="M9.95738 0C7.70941 0 5.61977 0.655391 3.92273 1.85113L4.05627 1.36879C4.17145 0.952852 3.92615 0.522656 3.50843 0.408008C3.09072 0.293359 2.65868 0.537578 2.5435 0.953516L1.64522 4.19797C1.55292 4.53164 1.69375 4.88902 1.99092 5.07082C2.34069 5.28543 2.79222 5.19141 3.03081 4.87227C4.60415 2.76887 7.12877 1.5625 9.95738 1.5625C14.7089 1.5625 18.431 5.26867 18.431 10C18.431 14.7313 14.7089 18.4375 9.95738 18.4375C9.47336 18.4375 8.99001 18.3989 8.52075 18.3229C8.09331 18.2539 7.68995 18.5427 7.62035 18.9686C7.5508 19.3945 7.8411 19.7959 8.26882 19.8652C8.82113 19.9546 9.38925 20 9.95738 20C15.5888 20 20.0001 15.6075 20.0001 10C20.0001 4.39254 15.5888 0 9.95738 0Z" fill="#6CACDF"/>
<path d="M9.95731 17.0312C13.8509 17.0312 17.0186 13.877 17.0186 10C17.0186 6.12297 13.8509 2.96875 9.95731 2.96875C6.0637 2.96875 2.896 6.12297 2.896 10C2.896 13.877 6.06366 17.0312 9.95731 17.0312ZM9.17272 4.5873V5.3125C9.17272 5.74398 9.52398 6.09375 9.95731 6.09375C10.3906 6.09375 10.7419 5.74398 10.7419 5.3125V4.5873C13.1436 4.9309 15.0481 6.8273 15.3932 9.21875H14.6649C14.2315 9.21875 13.8803 9.56852 13.8803 10C13.8803 10.4315 14.2315 10.7812 14.6649 10.7812H15.3932C15.0481 13.1727 13.1436 15.0691 10.7419 15.4127V14.6875C10.7419 14.256 10.3906 13.9062 9.95731 13.9062C9.52398 13.9062 9.17272 14.256 9.17272 14.6875V15.4127C6.77105 15.0691 4.8665 13.1727 4.52143 10.7812H5.24973C5.68306 10.7812 6.03432 10.4315 6.03432 10C6.03432 9.56852 5.68306 9.21875 5.24973 9.21875H4.52143C4.8665 6.8273 6.77105 4.9309 9.17272 4.5873Z" fill="#6CACDF"/>
<path d="M9.95695 10.7812H11.5261C11.9595 10.7812 12.3107 10.4315 12.3107 10C12.3107 9.56852 11.9595 9.21875 11.5261 9.21875H10.7415V8.4375C10.7415 8.00602 10.3903 7.65625 9.95695 7.65625C9.52362 7.65625 9.17236 8.00602 9.17236 8.4375V10C9.17236 10.4315 9.52362 10.7812 9.95695 10.7812Z" fill="#6CACDF"/>
<path d="M0.704185 9.15469C0.749613 9.16254 0.794766 9.16633 0.839331 9.16633C1.21374 9.16633 1.54519 8.89848 1.61145 8.51859C1.69332 8.04918 1.81552 7.58375 1.97471 7.13527C2.11912 6.72848 1.90496 6.28211 1.49643 6.13836C1.08789 5.99461 0.639653 6.20781 0.495249 6.61461C0.306869 7.14531 0.162268 7.69598 0.0654107 8.25129C-0.00873313 8.67644 0.27725 9.0809 0.704185 9.15469Z" fill="#6CACDF"/>
<path d="M1.56234 11.1859C1.50491 10.7582 1.11022 10.4579 0.680693 10.515C0.251208 10.5722 -0.0503883 10.9653 0.00700453 11.3929C0.14878 12.4489 0.452064 13.4643 0.908421 14.4109C1.095 14.798 1.56281 14.9648 1.95526 14.7771C2.34591 14.5904 2.51056 14.1237 2.32304 13.7348C1.9382 12.9364 1.68226 12.0788 1.56234 11.1859Z" fill="#6CACDF"/>
<path d="M5.98374 17.4909C5.18778 17.0808 4.46862 16.549 3.8462 15.9103C3.54441 15.6007 3.04773 15.5932 2.73675 15.8937C2.42578 16.1941 2.41829 16.6887 2.72004 16.9984C3.46058 17.7583 4.31606 18.3909 5.26262 18.8786C5.64755 19.0769 6.12093 18.9269 6.32002 18.5438C6.51915 18.1605 6.36858 17.6892 5.98374 17.4909Z" fill="#6CACDF"/>
</svg>
