<svg width="23" height="20" viewBox="0 0 23 20" fill="none" xmlns="http://www.w3.org/2000/svg">
<g id="Group">
<g id="Group_2">
<path id="Vector" d="M21.2031 11.8418V2.47525C21.2031 1.1104 20.1955 0 18.957 0H12.5732C12.3251 0 12.124 0.221683 12.124 0.49505C12.124 0.768416 12.3251 0.990099 12.5732 0.990099H18.957C19.7001 0.990099 20.3047 1.65634 20.3047 2.47525V11.344C19.883 11.1792 19.4294 11.0891 18.957 11.0891C16.8796 11.0891 15.1633 12.8249 14.9392 15.0495H2.24609C1.503 15.0495 0.898438 14.3833 0.898438 13.5644V2.47525C0.898438 1.65634 1.503 0.990099 2.24609 0.990099H8.53022C8.77827 0.990099 8.97943 0.768416 8.97943 0.49505C8.97943 0.221683 8.77827 0 8.53022 0H2.24609C1.0076 0 0 1.1104 0 2.47525V13.5644C0 14.9292 1.0076 16.0396 2.24609 16.0396H14.9392C15.1634 18.2642 16.8796 20 18.957 20C21.1863 20 23 18.0013 23 15.5446C23 14.0031 22.2859 12.642 21.2031 11.8418ZM18.957 19.0099C17.2231 19.0099 15.8125 17.4553 15.8125 15.5446C15.8125 13.6338 17.2231 12.0792 18.957 12.0792C20.6909 12.0792 22.1016 13.6338 22.1016 15.5446C22.1016 17.4553 20.6909 19.0099 18.957 19.0099Z" fill="#6CACDF"/>
<path id="Vector_2" d="M20.125 14.2907L18.6708 15.8933L18.0354 15.1931C17.86 14.9999 17.5757 14.9998 17.4001 15.1931C17.2247 15.3864 17.2247 15.6999 17.4001 15.8932L18.3531 16.9435C18.4373 17.0363 18.5516 17.0885 18.6707 17.0885C18.7899 17.0885 18.9041 17.0363 18.9884 16.9435L20.7602 14.9909C20.9357 14.7975 20.9357 14.4841 20.7602 14.2907C20.5848 14.0974 20.3005 14.0974 20.125 14.2907Z" fill="#6CACDF"/>
<path id="Vector_3" d="M11.6538 7.17586H18.9325C19.1806 7.17586 19.3818 6.95418 19.3818 6.68081V4.70062C19.3818 4.42725 19.1806 4.20557 18.9325 4.20557H11.6538C11.4058 4.20557 11.2046 4.42725 11.2046 4.70062V6.68081C11.2046 6.95423 11.4058 7.17586 11.6538 7.17586ZM12.103 5.19567H18.4833V6.18576H12.103V5.19567Z" fill="#6CACDF"/>
<path id="Vector_4" d="M11.6538 9.50475H18.9325C19.1806 9.50475 19.3818 9.28306 19.3818 9.0097C19.3818 8.73633 19.1806 8.51465 18.9325 8.51465H11.6538C11.4058 8.51465 11.2046 8.73633 11.2046 9.0097C11.2046 9.28306 11.4058 9.50475 11.6538 9.50475Z" fill="#6CACDF"/>
<path id="Vector_5" d="M11.6538 11.8338H14.3477C14.5958 11.8338 14.7969 11.6122 14.7969 11.3388C14.7969 11.0654 14.5958 10.8438 14.3477 10.8438H11.6538C11.4058 10.8438 11.2046 11.0654 11.2046 11.3388C11.2046 11.6122 11.4058 11.8338 11.6538 11.8338Z" fill="#6CACDF"/>
<path id="Vector_6" d="M1.79688 8.01992C1.79688 10.5859 3.69114 12.6734 6.01953 12.6734C8.34792 12.6734 10.2422 10.5859 10.2422 8.01992C10.2422 5.45398 8.34792 3.36646 6.01953 3.36646C3.69114 3.36646 1.79688 5.45398 1.79688 8.01992ZM3.96804 10.8992C4.05263 10.0831 4.68284 9.44695 5.4457 9.44695H6.59341C7.35623 9.44695 7.98648 10.0831 8.07107 10.8992C7.50555 11.3896 6.79327 11.6833 6.01953 11.6833C5.2458 11.6833 4.53352 11.3896 3.96804 10.8992ZM6.76357 7.63695C6.76357 8.08908 6.42976 8.45685 6.01953 8.45685C5.6093 8.45685 5.27549 8.08903 5.27549 7.63695V7.16517C5.27549 6.71304 5.6093 6.34527 6.01953 6.34527C6.42976 6.34527 6.76357 6.71309 6.76357 7.16517V7.63695ZM9.34375 8.01992C9.34375 8.76987 9.13787 9.46769 8.78555 10.049C8.52541 9.38393 8.02327 8.85997 7.40191 8.61254C7.56624 8.33076 7.66205 7.99601 7.66205 7.6369V7.16512C7.66205 6.1671 6.92525 5.35512 6.01958 5.35512C5.11391 5.35512 4.3771 6.1671 4.3771 7.16512V7.6369C4.3771 7.99601 4.47287 8.33076 4.63724 8.61254C4.01588 8.85997 3.51374 9.38393 3.2536 10.049C2.90119 9.46769 2.69531 8.76987 2.69531 8.01992C2.69531 5.99992 4.18654 4.35655 6.01953 4.35655C7.85252 4.35655 9.34375 5.99992 9.34375 8.01992Z" fill="#6CACDF"/>
<path id="Vector_7" d="M10.5522 0.990099C10.8003 0.990099 11.0015 0.768458 11.0015 0.49505C11.0015 0.221641 10.8003 0 10.5522 0C10.3041 0 10.103 0.221641 10.103 0.49505C10.103 0.768458 10.3041 0.990099 10.5522 0.990099Z" fill="#6CACDF"/>
</g>
</g>
</svg>
