<svg width="20" height="20" viewBox="0 0 20 20" fill="none" xmlns="http://www.w3.org/2000/svg">
<g id="Group 11794">
<path id="Vector" d="M19.4847 6.29402C18.7993 5.60863 17.684 5.60867 16.9984 6.29418C16.7875 6.50523 15.4411 7.85262 15.2354 8.05848V3.41508C15.2354 2.94555 15.0526 2.50414 14.7205 2.17215L13.0632 0.514844C12.7312 0.182813 12.2897 0 11.8201 0H1.75794C0.78861 0 0 0.788555 0 1.75781V18.2422C0 19.2114 0.78861 20 1.75794 20H13.4775C14.4468 20 15.2354 19.2114 15.2354 18.2422V13.0325L19.4847 8.77996C20.1717 8.09301 20.1719 6.98105 19.4847 6.29402ZM11.7196 1.17188C11.8303 1.17188 12.0437 1.1527 12.2345 1.34348L13.8919 3.00078C14.0778 3.18676 14.0635 3.39055 14.0635 3.51562H11.7196V1.17188ZM14.0635 18.2422C14.0635 18.5653 13.8007 18.8281 13.4775 18.8281H1.75794C1.43483 18.8281 1.17196 18.5653 1.17196 18.2422V1.75781C1.17196 1.43473 1.43483 1.17188 1.75794 1.17188H10.5476V4.10156C10.5476 4.42516 10.81 4.6875 11.1336 4.6875H14.0635V9.23137C14.0635 9.23137 12.3347 10.9615 12.3346 10.9616L11.5063 11.7898C11.442 11.8541 11.3935 11.9326 11.3647 12.0189L10.536 14.5048C10.4658 14.7154 10.5206 14.9475 10.6776 15.1044C10.8347 15.2616 11.067 15.3161 11.2772 15.246L13.7634 14.4173C13.8496 14.3886 13.9281 14.3401 13.9924 14.2758L14.0635 14.2047V18.2422ZM12.7493 12.2042L13.578 13.0328L13.2615 13.3493L12.0185 13.7636L12.4328 12.5207L12.7493 12.2042ZM14.4066 12.204L13.5779 11.3754C14.0192 10.9338 15.979 8.97234 16.3947 8.55637L17.2234 9.385L14.4066 12.204ZM18.6558 7.95148L18.0517 8.55602L17.2231 7.72738L17.8273 7.12266C18.0559 6.89418 18.4276 6.89422 18.656 7.12266C18.8845 7.35117 18.8857 7.7216 18.6558 7.95148Z" fill="#6CACDF"/>
<g id="Group">
<g id="Group_2">
<path id="Vector_2" d="M11.1334 5.85938H2.92973C2.60611 5.85938 2.34375 6.12172 2.34375 6.44531C2.34375 6.76891 2.60611 7.03125 2.92973 7.03125H11.1334C11.457 7.03125 11.7194 6.76891 11.7194 6.44531C11.7194 6.12172 11.457 5.85938 11.1334 5.85938Z" fill="#6CACDF"/>
</g>
</g>
<g id="Group_3">
<g id="Group_4">
<path id="Vector_3" d="M8.78952 8.20312H2.92973C2.60611 8.20312 2.34375 8.46547 2.34375 8.78906C2.34375 9.11266 2.60611 9.375 2.92973 9.375H8.78952C9.11313 9.375 9.3755 9.11266 9.3755 8.78906C9.3755 8.46547 9.11313 8.20312 8.78952 8.20312Z" fill="#6CACDF"/>
</g>
</g>
<g id="Group_5">
<g id="Group_6">
<path id="Vector_4" d="M8.78952 10.5469H2.92973C2.60611 10.5469 2.34375 10.8092 2.34375 11.1328C2.34375 11.4564 2.60611 11.7188 2.92973 11.7188H8.78952C9.11313 11.7188 9.3755 11.4564 9.3755 11.1328C9.3755 10.8092 9.11313 10.5469 8.78952 10.5469Z" fill="#6CACDF"/>
</g>
</g>
<g id="Group_7">
<g id="Group_8">
<path id="Vector_5" d="M8.78952 12.8906H2.92973C2.60611 12.8906 2.34375 13.153 2.34375 13.4766C2.34375 13.8002 2.60611 14.0625 2.92973 14.0625H8.78952C9.11313 14.0625 9.3755 13.8002 9.3755 13.4766C9.3755 13.153 9.11313 12.8906 8.78952 12.8906Z" fill="#6CACDF"/>
</g>
</g>
<g id="Group_9">
<g id="Group_10">
<path id="Vector_6" d="M11.1336 16.4844H7.61772C7.2941 16.4844 7.03174 16.7467 7.03174 17.0703C7.03174 17.3939 7.2941 17.6562 7.61772 17.6562H11.1336C11.4572 17.6562 11.7196 17.3939 11.7196 17.0703C11.7196 16.7467 11.4572 16.4844 11.1336 16.4844Z" fill="#6CACDF"/>
</g>
</g>
</g>
</svg>
