<svg width="20" height="20" viewBox="0 0 20 20" fill="none" xmlns="http://www.w3.org/2000/svg">
<g id="Group 11719">
<path id="Vector" d="M18.2422 0H6.44531C5.47605 0 4.6875 1.03523 4.6875 2.30769C4.6875 2.86785 4.6875 4.26979 4.6875 4.74072C3.95355 4.99272 3.3141 5.61251 2.91637 6.48272L0.4175 11.9503C0.144375 12.5479 0 13.2322 0 13.9292V19.2308C0 19.6556 0.262344 20 0.585938 20H5.2723C5.81992 20 6.34289 19.6592 6.6734 19.0876L7.10926 18.3724C7.33086 19.3139 8.00004 20 8.78906 20C9.59836 20 10.2817 19.2782 10.4852 18.2993C10.6857 18.4039 10.9042 18.4615 11.1328 18.4615C11.9423 18.4615 12.6254 17.7392 12.8287 16.7599C13.0293 16.8648 13.2478 16.9231 13.4766 16.9231C14.4458 16.9231 15.2344 15.8878 15.2344 14.6154V13.8462H18.2422C19.2114 13.8462 20 12.8109 20 11.5385C20 11.2609 20 2.54995 20 2.30769C20 1.03523 19.2114 0 18.2422 0ZM9.375 17.6923C9.375 18.1165 9.11215 18.4615 8.78906 18.4615C8.46598 18.4615 8.20312 18.1165 8.20312 17.6923V16.5773L9.375 14.6542V17.6923ZM10.434 10.4536L5.75316 18.135C5.74934 18.1412 5.74563 18.1475 5.74195 18.1539C5.63031 18.3494 5.4591 18.4615 5.2723 18.4615H1.17188V13.9291C1.17188 13.5109 1.25852 13.1004 1.42238 12.7418L3.92125 7.27415C4.10445 6.87328 4.37336 6.56159 4.6875 6.36964C4.6875 6.79446 4.6875 9.78605 4.6875 10.2641C4.6875 11.2152 5.10332 12.0321 5.77262 12.3961C6.44199 12.76 7.17598 12.5684 7.68824 11.8958L9.54668 9.45605C9.76336 9.17174 10.1136 9.15508 10.3454 9.41959C10.5747 9.6798 10.6129 10.1321 10.434 10.4536ZM11.7188 16.1538C11.7188 16.578 11.4559 16.9231 11.1328 16.9231C10.8097 16.9231 10.5469 16.578 10.5469 16.1538V13.8462H11.7188C11.7188 14.5672 11.7188 14.1294 11.7188 16.1538ZM14.0625 14.6154C14.0625 15.0395 13.7996 15.3846 13.4766 15.3846C13.1535 15.3846 12.8906 15.0395 12.8906 14.6154V13.8462H14.0625V14.6154ZM18.2422 12.3077C17.9755 12.3077 11.1371 12.3077 10.8049 12.3077L11.3557 11.4037C11.3595 11.3975 11.3632 11.3912 11.3669 11.3849C11.919 10.4189 11.8069 9.04436 11.1129 8.25703C10.4198 7.46641 9.36789 7.51518 8.71805 8.36831L6.85961 10.8081C6.60281 11.1453 6.30594 11.021 6.22106 10.9748C6.13621 10.9287 5.85934 10.7411 5.85934 10.2642V7.68718H18.8281V11.5385H18.8281C18.8281 11.9626 18.5653 12.3077 18.2422 12.3077ZM18.8281 6.15385H5.85938V4.61538H18.8281V6.15385ZM18.8281 3.07692H5.85938V2.30769C5.85938 1.88354 6.12223 1.53846 6.44531 1.53846H18.2422C18.5653 1.53846 18.8281 1.88354 18.8281 2.30769V3.07692Z" fill="#6CACDF"/>
<g id="Group">
<g id="Group_2">
<path id="Vector_2" d="M17.0703 9.23071H14.6484C14.3248 9.23071 14.0625 9.57512 14.0625 9.99994C14.0625 10.4248 14.3248 10.7692 14.6484 10.7692H17.0703C17.3939 10.7692 17.6563 10.4248 17.6563 9.99994C17.6563 9.57512 17.3939 9.23071 17.0703 9.23071Z" fill="#6CACDF"/>
</g>
</g>
</g>
</svg>
