<svg width="16" height="24" viewBox="0 0 16 24" fill="none" xmlns="http://www.w3.org/2000/svg">
<g id="Group 11889">
<g id="Group">
<g id="Group_2">
<path id="Vector" d="M6.33097 0C3.7388 0 1.62988 2.02203 1.62988 4.5075C1.62988 6.99287 3.7388 9.01495 6.33097 9.01495C8.92314 9.01495 11.032 6.99292 11.032 4.5075C11.032 2.02203 8.92314 0 6.33097 0Z" fill="#6CACDF"/>
</g>
</g>
<g id="Group_3">
<g id="Group_4">
<path id="Vector_2" d="M9.10584 9.96362H3.55716C1.59574 9.96362 0 11.4937 0 13.3743V20.0588C0 21.1871 0.957444 22.1052 2.13429 22.1052H6.25751C5.57529 21.1584 5.17504 20.0112 5.17504 18.7759C5.17504 15.5382 7.92221 12.9042 11.2989 12.9042C11.7618 12.9042 12.2126 12.954 12.6463 13.0477C12.4742 11.3198 10.9523 9.96362 9.10584 9.96362Z" fill="#6CACDF"/>
</g>
</g>
<g id="Group_5">
<g id="Group_6">
<path id="Vector_3" d="M11.2987 14.2686C8.70653 14.2686 6.59766 16.2906 6.59766 18.776C6.59766 21.2614 8.70653 23.2835 11.2987 23.2835C13.8909 23.2835 15.9997 21.2615 15.9997 18.776C15.9997 16.2906 13.8909 14.2686 11.2987 14.2686ZM12.9892 19.4581H12.0101V20.397C12.0101 20.7737 11.6915 21.0791 11.2986 21.0791C10.9057 21.0791 10.5872 20.7737 10.5872 20.397V19.4581H9.60805C9.21515 19.4581 8.89662 19.1527 8.89662 18.776C8.89662 18.3993 9.21515 18.0939 9.60805 18.0939H10.5872V17.155C10.5872 16.7783 10.9057 16.4729 11.2986 16.4729C11.6915 16.4729 12.0101 16.7783 12.0101 17.155V18.0939H12.9892C13.3821 18.0939 13.7007 18.3993 13.7007 18.776C13.7007 19.1527 13.3821 19.4581 12.9892 19.4581Z" fill="#6CACDF"/>
</g>
</g>
</g>
</svg>
