<svg width="20" height="20" viewBox="0 0 20 20" fill="none" xmlns="http://www.w3.org/2000/svg">
<g id="Group 11722">
<path id="Vector" d="M19.9519 19.1801L16.4227 10.9462C16.3299 10.73 16.1172 10.5897 15.8821 10.5897H13.6407C14.5479 9.00496 15.2939 7.25096 15.2939 5.76689C15.2939 -1.87561 4.70611 -1.96884 4.70611 5.76689C4.70611 7.25096 5.45211 9.00496 6.35924 10.5897H4.11788C3.88259 10.5897 3.66988 10.73 3.57726 10.9462L0.0480631 19.1801C-0.117952 19.5674 0.166471 20 0.588681 20H19.4113C19.8326 20 20.1182 19.5683 19.9519 19.1801ZM15.4941 11.766L17.2355 15.8288C17.1811 15.8572 11.513 18.8005 11.4725 18.8237H10.2412C10.2101 18.7889 10.4747 19.0548 6.64107 15.2217L8.77043 14.1319C9.20455 14.6859 9.50865 15.038 9.55611 15.0926C9.79048 15.3624 10.2096 15.3619 10.4437 15.0926C10.5421 14.9794 11.7412 13.5901 12.9223 11.766H15.4941ZM9.99998 1.17935C11.983 1.17935 14.1174 2.61504 14.1174 5.76689C14.1174 8.41704 11.1467 12.361 9.99998 13.7843C8.85329 12.3608 5.88256 8.41704 5.88256 5.76689C5.88256 2.59795 7.95043 1.17935 9.99998 1.17935ZM4.50576 11.766C7.35518 11.766 7.03139 11.7665 7.07701 11.7651C7.40828 12.2767 7.74092 12.7542 8.05037 13.179L2.73391 15.8999L4.50576 11.766ZM2.00836 17.5927L5.54076 15.7849L8.58 18.8237H1.48071L2.00836 17.5927ZM14.0219 18.8237L17.7003 16.913L18.5193 18.8237H14.0219Z" fill="#6CACDF"/>
<path id="Vector_2" d="M11.7646 5.29626C11.7646 4.32336 10.9729 3.53174 10 3.53174C9.02698 3.53174 8.23535 4.32336 8.23535 5.29626C8.23535 6.26916 9.02698 7.06063 10 7.06063C10.9729 7.06063 11.7646 6.26916 11.7646 5.29626ZM9.4118 5.29626C9.4118 4.97186 9.67563 4.70804 10 4.70804C10.3243 4.70804 10.5883 4.97186 10.5883 5.29626C10.5883 5.62051 10.3243 5.88434 10 5.88434C9.67563 5.88434 9.4118 5.62051 9.4118 5.29626Z" fill="#6CACDF"/>
</g>
</svg>
