<svg width="18" height="18" viewBox="0 0 18 18" fill="none" xmlns="http://www.w3.org/2000/svg">
<g id="Mail">
<path id="Vector" d="M13.4177 7.23549V0.527342C13.4177 0.236249 13.1814 0 12.8903 0H3.42383C3.13238 0 2.89648 0.236249 2.89648 0.527342V7.45733L8.0212 11.643L13.4177 7.23549ZM5.26179 2.10937H10.781C11.0703 2.10937 11.3083 2.34738 11.3083 2.63671C11.3083 2.92605 11.0703 3.16405 10.781 3.16405H5.26179C4.97246 3.16405 4.73445 2.92605 4.73445 2.63671C4.73445 2.34738 4.97246 2.10937 5.26179 2.10937ZM11.3079 4.74608C11.3079 5.03718 11.0717 5.27342 10.7806 5.27342H9.07588C8.78479 5.27342 8.54854 5.03718 8.54854 4.74608C8.54854 4.45499 8.78479 4.21874 9.07588 4.21874H10.7806C11.0717 4.21874 11.3079 4.45499 11.3079 4.74608ZM5.26179 4.21874H6.96651C7.25761 4.21874 7.49386 4.45499 7.49386 4.74608C7.49386 5.03718 7.25761 5.27342 6.96651 5.27342H5.26179C4.9707 5.27342 4.73445 5.03718 4.73445 4.74608C4.73445 4.45499 4.9707 4.21874 5.26179 4.21874ZM4.73445 6.85545C4.73445 6.56612 4.97246 6.32811 5.26179 6.32811H10.781C11.0703 6.32811 11.3083 6.56612 11.3083 6.85545C11.3083 7.14479 11.0703 7.38279 10.781 7.38279H5.26179C4.97246 7.38279 4.73445 7.14479 4.73445 6.85545Z" fill="white"/>
<path id="Vector_2" d="M1.84193 4.56128L0.541504 5.53405L1.84193 6.59612V4.56128Z" fill="white"/>
<path id="Vector_3" d="M0 6.45361V14.8007L5.18588 10.6892L0 6.45361Z" fill="white"/>
<path id="Vector_4" d="M8.35508 12.7325C8.25805 12.8116 8.13992 12.8513 8.02145 12.8513C7.90332 12.8513 7.78485 12.8116 7.68781 12.7325L6.02247 11.3723L0.711426 15.583H10.0802C9.993 15.2311 9.94906 14.8693 9.94906 14.5016C9.94906 13.8898 10.0707 13.2947 10.3101 12.7322C10.4282 12.4544 10.5727 12.1911 10.7418 11.944L10.0204 11.3723L8.35508 12.7325Z" fill="white"/>
<path id="Vector_5" d="M14.4727 4.76465V6.3741L15.501 5.53387L14.4727 4.76465Z" fill="white"/>
<path id="Vector_6" d="M12.732 10.3099C13.2942 10.0705 13.8897 9.94884 14.5014 9.94884C15.0309 9.94884 15.5484 10.0399 16.0423 10.2202V6.45361L10.8564 10.6892L11.4337 11.147C11.8176 10.795 12.2536 10.5138 12.732 10.3099Z" fill="white"/>
<path id="Vector_7" d="M14.5015 11.0034C12.5823 11.0034 11.0034 12.5826 11.0034 14.5015C11.0034 16.4206 12.5823 17.9998 14.5015 17.9998C16.4206 17.9998 17.9998 16.4206 17.9998 14.5015C17.9998 12.5823 16.4206 11.0034 14.5015 11.0034ZM14.9824 15.6792C14.9824 15.9703 14.7465 16.2065 14.4551 16.2065C14.164 16.2065 13.9277 15.9703 13.9277 15.6792V14.3334L13.8574 14.3823C13.6183 14.5486 13.2896 14.4899 13.1233 14.2508C12.957 14.0117 13.0161 13.683 13.2552 13.5167L14.1541 12.8913C14.2441 12.8287 14.3492 12.7967 14.4551 12.7967C14.5145 12.7967 14.6059 12.8059 14.6994 12.8565C14.9476 12.9908 14.9792 13.2921 14.9824 13.3241V15.6792Z" fill="#EC2849"/>
</g>
</svg>
