<svg width="23" height="23" viewBox="0 0 23 23" fill="none" xmlns="http://www.w3.org/2000/svg">
<g id="ic:round-menu">
<path id="Vector" d="M3.90592 16.7402H18.5726C19.0768 16.7402 19.4893 16.3277 19.4893 15.8236C19.4893 15.3194 19.0768 14.9069 18.5726 14.9069H3.90592C3.40176 14.9069 2.98926 15.3194 2.98926 15.8236C2.98926 16.3277 3.40176 16.7402 3.90592 16.7402ZM3.90592 12.1569H18.5726C19.0768 12.1569 19.4893 11.7444 19.4893 11.2402C19.4893 10.7361 19.0768 10.3236 18.5726 10.3236H3.90592C3.40176 10.3236 2.98926 10.7361 2.98926 11.2402C2.98926 11.7444 3.40176 12.1569 3.90592 12.1569ZM2.98926 6.6569C2.98926 7.16107 3.40176 7.57357 3.90592 7.57357H18.5726C19.0768 7.57357 19.4893 7.16107 19.4893 6.6569C19.4893 6.15273 19.0768 5.74023 18.5726 5.74023H3.90592C3.40176 5.74023 2.98926 6.15273 2.98926 6.6569Z" fill="#B5B5B5"/>
</g>
</svg>
