<svg width="17" height="18" viewBox="0 0 17 18" fill="none" xmlns="http://www.w3.org/2000/svg">
<g id="Group">
<path id="Vector" d="M7.18851 16.0659C7.18851 17.1322 8.05597 17.9996 9.12217 17.9996C10.1884 17.9996 11.0559 17.1322 11.0559 16.0659V15.9006H7.18848V16.0659H7.18851Z" fill="white"/>
<path id="Vector_2" d="M16.0641 13.7936C15.6919 13.7936 15.3891 13.4907 15.3891 13.1185V7.8798C15.3891 5.1427 13.6271 2.74721 11.0558 1.91705C11.0469 0.858399 10.1829 0 9.12215 0C8.06143 0 7.19748 0.858399 7.18852 1.91705C6.55387 2.12194 5.96863 2.42236 5.44693 2.79958C6.82682 3.54559 7.76638 5.00584 7.76638 6.68151C7.76638 9.113 5.78819 11.0912 3.3567 11.0912C3.18714 11.0912 3.01987 11.0812 2.85523 11.0625V13.1185C2.85523 13.4908 2.55239 13.7936 2.18012 13.7936C1.88919 13.7936 1.65332 14.0295 1.65332 14.3204C1.65332 14.6113 1.88919 14.8472 2.18012 14.8472H16.0641C16.3551 14.8472 16.5909 14.6113 16.5909 14.3204C16.5909 14.0294 16.3551 13.7936 16.0641 13.7936Z" fill="white"/>
<path id="Vector_3" d="M6.71263 6.68149C6.71263 4.83096 5.20711 3.32544 3.35654 3.32544C1.50597 3.32544 0.000488281 4.83099 0.000488281 6.68149C0.000488281 8.53199 1.50601 10.0376 3.35654 10.0376C5.20707 10.0376 6.71263 8.53202 6.71263 6.68149ZM2.82978 7.64139V6.24825H2.595C2.30407 6.24825 2.0682 6.01239 2.0682 5.72145C2.0682 5.43052 2.30407 5.19466 2.595 5.19466H3.35657C3.64751 5.19466 3.88337 5.43052 3.88337 5.72145V7.64139C3.88337 7.93232 3.64751 8.16818 3.35657 8.16818C3.06564 8.16818 2.82978 7.93232 2.82978 7.64139Z" fill="#F72D4E"/>
</g>
</svg>
