<svg width="18" height="20" viewBox="0 0 18 20" fill="none" xmlns="http://www.w3.org/2000/svg">
<g id="Report">
<g id="Group">
<path id="Vector" d="M13.9091 20H4.0909C1.83518 20 0 18.2477 0 16.0938V3.90625C0 1.75234 1.83518 0 4.0909 0H12.5535C13.6462 0 14.6735 0.406328 15.4462 1.14414L16.8018 2.43855C17.5745 3.17637 18 4.1573 18 5.2007V5.46875C18 5.90023 17.6337 6.25 17.1818 6.25H13.9091C12.5557 6.25 11.4546 5.19859 11.4546 3.90625V1.5625H4.0909C2.73747 1.5625 1.63636 2.61391 1.63636 3.90625V16.0938C1.63636 17.3861 2.73747 18.4375 4.0909 18.4375H13.9091C15.2625 18.4375 16.3636 17.3861 16.3636 16.0938V8.59375C16.3636 8.16227 16.7299 7.8125 17.1818 7.8125C17.6337 7.8125 18 8.16227 18 8.59375V16.0938C18 18.2477 16.1648 20 13.9091 20ZM13.0909 1.61852V3.90625C13.0909 4.33703 13.4579 4.6875 13.9091 4.6875H16.3049C16.2048 4.25742 15.9788 3.8625 15.6447 3.5434L14.2891 2.24898C13.9549 1.92988 13.5413 1.7141 13.0909 1.61852Z" fill="#6CACDF"/>
</g>
<path id="Vector_2" d="M13.9093 13.75H13.0911V8.59375C13.0911 8.16227 12.7248 7.8125 12.2729 7.8125C11.821 7.8125 11.4547 8.16227 11.4547 8.59375V13.75H9.81839V10.1562C9.81839 9.72477 9.45209 9.375 9.00021 9.375C8.54833 9.375 8.18203 9.72477 8.18203 10.1562V13.75H6.54567V11.7188C6.54567 11.2873 6.17937 10.9375 5.72749 10.9375C5.27561 10.9375 4.90931 11.2873 4.90931 11.7188V13.75H4.09113C3.63925 13.75 3.27295 14.0998 3.27295 14.5312C3.27295 14.9627 3.63925 15.3125 4.09113 15.3125H13.9093C14.3612 15.3125 14.7275 14.9627 14.7275 14.5312C14.7275 14.0998 14.3612 13.75 13.9093 13.75Z" fill="#6CACDF"/>
<g id="Group_2">
<path id="Vector_3" d="M7.36385 6.25H4.09113C3.63925 6.25 3.27295 5.90023 3.27295 5.46875C3.27295 5.03727 3.63925 4.6875 4.09113 4.6875H7.36385C7.81573 4.6875 8.18203 5.03727 8.18203 5.46875C8.18203 5.90023 7.81573 6.25 7.36385 6.25Z" fill="#6CACDF"/>
</g>
</g>
</svg>
