<svg width="19" height="19" viewBox="0 0 19 19" fill="none" xmlns="http://www.w3.org/2000/svg">
<g id="Group 11715">
<path id="Vector" d="M6.13098 12.8961C6.45712 12.8961 6.70314 12.6889 6.75769 12.3683C6.80078 12.1151 7.02022 11.9299 7.27702 11.9299C7.53386 11.9299 7.75326 12.1151 7.79636 12.3683C7.84837 12.6742 8.11196 12.8961 8.42306 12.8961C8.73416 12.8961 8.99771 12.6741 9.04976 12.3683C9.09285 12.1151 9.31225 11.9299 9.56913 11.9299C9.82597 11.9299 10.0454 12.1151 10.0885 12.3683C10.1405 12.6741 10.4041 12.8961 10.7152 12.8961C11.0263 12.8961 11.2899 12.6741 11.3419 12.3683C11.385 12.1151 11.6044 11.9299 11.8613 11.9299C12.1181 11.9299 12.3376 12.1151 12.3806 12.3683C12.4352 12.6889 12.6811 12.8961 13.0073 12.8961C13.3227 12.8961 13.6431 12.5262 13.6431 12.2603V11.5542C13.6431 11.2637 13.4068 11.0273 13.1163 11.0273H6.02193C5.73145 11.0273 5.49512 11.2637 5.49512 11.5542V12.2603C5.49512 12.593 5.79818 12.8961 6.13098 12.8961Z" fill="#6CACDF"/>
<path id="Vector_2" d="M13.6432 13.8053C13.4425 13.8974 13.2265 13.9498 13.0073 13.9498C12.5603 13.9498 12.1571 13.7861 11.8566 13.5083C11.5544 13.7845 11.1525 13.9498 10.7152 13.9498C10.2757 13.9498 9.87184 13.7828 9.56916 13.5039C9.26649 13.7828 8.86263 13.9498 8.42313 13.9498C7.98587 13.9498 7.58391 13.7845 7.28176 13.5083C6.98123 13.7861 6.57808 13.9498 6.13098 13.9498C5.90747 13.9498 5.69253 13.9035 5.49512 13.8205V15.3473H13.6432V13.8053Z" fill="#6CACDF"/>
<path id="Vector_3" d="M0.578613 17.8406C0.578613 18.1315 0.814487 18.3674 1.10543 18.3674H18.0338C18.3247 18.3674 18.5606 18.1315 18.5606 17.8406V6.42627H0.578613V17.8406ZM4.02048 15.347H4.44193V11.5539C4.44193 10.7298 5.07601 10.0514 5.88186 9.98003V8.9198C5.88186 8.62885 6.11774 8.39298 6.40868 8.39298C6.69962 8.39298 6.9355 8.62885 6.9355 8.9198V9.97343H7.98916V8.9198C7.98916 8.62885 8.22504 8.39298 8.51598 8.39298C8.80692 8.39298 9.0428 8.62885 9.0428 8.9198V9.97343H10.0964V8.9198C10.0964 8.62885 10.3323 8.39298 10.6232 8.39298C10.9142 8.39298 11.1501 8.62885 11.1501 8.9198V9.97343H12.2037V8.9198C12.2037 8.62885 12.4396 8.39298 12.7305 8.39298C13.0215 8.39298 13.2574 8.62885 13.2574 8.9198V9.98003C14.0632 10.0515 14.6973 10.7299 14.6973 11.5539V15.347H15.1187C15.4097 15.347 15.6456 15.5829 15.6456 15.8738C15.6456 16.1648 15.4097 16.4007 15.1187 16.4007H4.02048C3.72954 16.4007 3.49366 16.1648 3.49366 15.8738C3.49366 15.5829 3.7295 15.347 4.02048 15.347Z" fill="#6CACDF"/>
<path id="Vector_4" d="M18.0338 2.45786H16.4534V1.93125C16.4534 1.46586 16.271 1.05344 15.9398 0.769975C15.6534 0.524724 15.2744 0.389648 14.8728 0.389648C14.4713 0.389648 14.0923 0.524724 13.8059 0.769975C13.4747 1.05344 13.2924 1.46586 13.2924 1.93125V2.45786H14.346V1.93125C14.346 1.46678 14.7849 1.44325 14.8728 1.44325C15.0211 1.44325 15.1603 1.48957 15.2546 1.57035C15.3522 1.6539 15.3997 1.77198 15.3997 1.93125V2.45786H14.346V3.79246C14.346 4.0834 14.1101 4.31928 13.8192 4.31928C13.5283 4.31928 13.2924 4.0834 13.2924 3.79246V2.45786H5.84681V1.93125C5.84681 1.46586 5.66446 1.05344 5.33331 0.769975C5.04686 0.524689 4.6679 0.389648 4.26633 0.389648C3.86475 0.389648 3.4858 0.524724 3.19935 0.769975C2.86823 1.05344 2.68588 1.46586 2.68588 1.93125V2.45786H3.73951V1.93125C3.73951 1.46678 4.17835 1.44325 4.26633 1.44325C4.41464 1.44325 4.55379 1.48957 4.64813 1.57035C4.74573 1.6539 4.79318 1.77198 4.79318 1.93125L4.82138 2.45786H3.73951V3.79246C3.73951 4.0834 3.50364 4.31928 3.2127 4.31928C2.92175 4.31928 2.68588 4.0834 2.68588 3.79246V2.45786H1.10543C0.814487 2.45786 0.578613 2.69373 0.578613 2.98468V5.37277H18.5606V2.98468C18.5606 2.69373 18.3247 2.45786 18.0338 2.45786Z" fill="#6CACDF"/>
</g>
</svg>
